# xmcd CD database file
#
# Track frame offsets:
#	150
#	5242
#	39516
#	93211
#	190992
#	224227
#	246728
#	288520
#	320130
#
# Disc length: 4401 seconds
#
# Revision: 0
# Processed by: cddbd v1.5.2PL0 Copyright (c) Steve Scherf et al.
# Submitted via: CDex 1.51
#
DISCID=93112f09
DTITLE=Abraham-Hicks - 10-06-07 - Stamford, CT
DYEAR=2007
DGENRE=New Age
TTITLE0=Abraham-Hicks Publications
TTITLE1=What is it that you do want?
TTITLE2=All thoughts thought exist
TTITLE3=Preteen hurt by schoolmates
TTITLE4=Creator's role in product flow?
TTITLE5=Selfishness, a form of service
TTITLE6=If a suicidee kills another?
TTITLE7=Has kids, cats, dogs and chaos
TTITLE8=Stamford, CT Workshop closing
EXTD=YEAR: 2007
EXTT0=
EXTT1=
EXTT2=
EXTT3=
EXTT4=
EXTT5=
EXTT6=
EXTT7=
EXTT8=
PLAYORDER=
